<svg xmlns="http://www.w3.org/2000/svg" xmlns:xlink="http://www.w3.org/1999/xlink" aria-hidden="true" role="img" class="iconify iconify--logos" width="31.88" height="32" preserveAspectRatio="xMidYMid meet" viewBox="0 0 256 257"><defs><linearGradient id="IconifyId1813088fe1fbc01fb466" x1="-.828%" x2="57.636%" y1="7.652%" y2="78.411%"><stop offset="0%" stop-color="#41D1FF"></stop><stop offset="100%" stop-color="#BD34FE"></stop></linearGradient><linearGradient id="IconifyId1813088fe1fbc01fb467" x1="43.376%" x2="50.316%" y1="2.242%" y2="89.03%"><stop offset="0%" stop-color="#FFBD4F"></stop><stop offset="100%" stop-color="#FF980E"></stop></linearGradient></defs><path fill="url(#IconifyId1813088fe1fbc01fb466)" d="M255.153 37.938L134.897 252.976c-2.483 4.44-8.862 4.466-11.382.048L.875 37.958c-2.746-4.814 1.371-10.646 6.827-9.67l120.385 21.517a6.537 6.537 0 0 0 2.322-.004l117.867-21.483c5.438-.991 9.574 4.796 6.877 9.62Z"></path><path fill="url(#IconifyId1813088fe1fbc01fb467)" d="M185.432.063L96.44 17.501a3.268 3.268 0 0 0-2.634 3.014l-5.474 92.456a3.268 3.268 0 0 0 3.997 3.378l24.777-5.718c2.318-.535 4.413 1.507 3.936 3.838l-7.361 36.047c-.495 2.426 1.782 4.5 4.151 3.78l15.304-4.649c2.372-.72 4.652 1.36 4.15 3.788l-11.698 56.621c-.732 3.542 3.979 5.473 5.943 2.437l1.313-2.028l72.516-144.72c1.215-2.423-.88-5.186-3.54-4.672l-25.505 4.922c-2.396.462-4.435-1.77-3.759-4.228l16.646-57.705c.677-2.45-1.37-4.868-3.769-4.516l-93.573 13.774c-2.492.366-4.263-2.332-3.028-4.56l12.363-23.677c1.235-2.228 4.267-2.228 5.502 0l12.363 23.677c1.235 2.228-.536 4.926-3.028 4.56L83.153 94.696c-.428-.063-.843.17-.99.586l-14.05 36.647c-.147.416.09.87.586.99l24.777 5.718c.496.114.87-.09.99-.586l14.05-36.647c.147-.416-.09-.87-.586-.99l-24.777-5.718c-2.318-.535-4.413 1.507-3.936 3.838l7.361 36.047c.495 2.426-1.782 4.5-4.151 3.78l-15.304-4.649c-2.372-.72-4.652 1.36-4.15 3.788l11.698 56.621c.732 3.542-3.979 5.473-5.943 2.437l-1.313-2.028L17.846 3.482C16.632 1.06 18.727-1.703 21.386-1.19l25.505 4.922c2.396.462 4.435-1.77 3.759-4.228L34.004-48.85c-.677-2.45 1.37-4.868 3.769-4.516l93.573 13.774c2.492.366 4.263-2.332 3.028-4.56l-12.363-23.677c-1.235-2.228-4.267-2.228-5.502 0l-12.363 23.677c-1.235 2.228.536 4.926 3.028 4.56l93.573-13.774c2.399-.352 4.446 2.066 3.769 4.516l-16.646 57.705c-.676 2.458 1.363 4.69 3.759 4.228l25.505-4.922c2.659-.516 4.755 2.249 3.54 4.672l-72.516 144.72l-1.313 2.028c-1.964 3.036-6.675.605-5.943-2.437l11.698-56.621c.502-2.428-1.778-4.508-4.15-3.788l-15.304 4.649c-2.369.72-4.646-1.354-4.151-3.78l7.361-36.047c.477-2.331-1.618-4.373-3.936-3.838l-24.777 5.718c-.496.114-.733-.574-.586-.99l14.05-36.647c.147-.416.562-.649.99-.586l120.385 21.517c5.456.975 9.573-4.856 6.877-9.67Z"></path></svg>
